<svg xmlns="http://www.w3.org/2000/svg" viewBox="0 0 196.7 196.7"><rect x="83.6" y="146.4" fill="#FDCC9B" width="29.4" height="32.9"/><path fill="#FCBC85" d="M83.6,150.3c0,0,12.4,7.9,29.4,6.1v-9.9H83.6V150.3z"/><ellipse fill="#FCBC85" cx="41.2" cy="95.3" rx="14.3" ry="16.4"/><ellipse fill="#FCBC85" cx="155.4" cy="95.3" rx="14.3" ry="16.4"/><path fill="#FDCC9B" d="M155.4,64.1c0-24.1-17.6-41.7-57-41.7s-57,17.6-57,41.7c0,24.1-4.1,87.6,57,87.6S155.4,88.2,155.4,64.1z"/><ellipse fill="#3B2519" cx="70.6" cy="91.4" rx="6.2" ry="6.8"/><circle fill="#FFFFFF" cx="67.9" cy="88.4" r="1.8"/><path fill="#86461B" d="M60.7,74.7c2.9,1.5,7.6-5,18.3,0.6c2,1,3.1-8.7-8.4-8.7C60.7,66.6,58.9,73.8,60.7,74.7z"/><ellipse fill="#3B2519" cx="126.9" cy="91.4" rx="6.2" ry="6.8"/><circle fill="#FFFFFF" cx="124.2" cy="88.4" r="1.8"/><path fill="#86461B" d="M136,74.7c-2.9,1.5-7.6-5-18.3,0.6c-2,1-3.1-8.7,8.4-8.7C136,66.6,137.7,73.8,136,74.7z"/><path fill="#FCBC85" d="M98.3,115.2c-6.1,0-9.8-4.6-9.8-2.4c0,2.2,1.8,6.4,9.8,6.4s9.8-4.2,9.8-6.4C108.1,110.6,104.4,115.2,98.3,115.2z"/><path fill="#FCBC85" d="M98.3,135.5c-2.1,0-3.4-1.6-3.4-0.8s0.6,2.2,3.4,2.2c2.8,0,3.4-1.4,3.4-2.2C101.7,133.9,100.4,135.5,98.3,135.5z"/><path fill="#F7945E" d="M98.3,129.9c-9.7,0-15.5-3.9-15.5-2.9c0,1,2.8,4.9,15.5,4.9s15.5-3.9,15.5-4.9C113.8,125.9,108,129.9,98.3,129.9z"/><path fill="#D58E64" d="M98.3,159.6c-33.8,0-71.4,22-71.4,37h71.4h71.4C169.8,181.7,132.1,159.6,98.3,159.6z"/><path fill="#BF805A" d="M98.3,159.6c-7.2,0-14.6,1-21.7,2.7c0,0.1,7.9,10.2,21.7,10.2c12.8,0,21.2-8.7,22.5-10C113.4,160.7,105.8,159.6,98.3,159.6z"/><path fill="#FDCC9B" d="M83.6,160.9c0,0,4.3,5.3,14.7,5.3s14.7-5.3,14.7-5.3S97.8,155.3,83.6,160.9z"/><path fill="#86461B" d="M113,143.7c-6.5,0-6.2-4.6-14.7-4.6c-8.5,0-8.2,4.6-14.7,4.6c-14.7,0-31.4-15.3-29.2-11.9c3,4.6,13.1,20.9,43.9,20.9c30.7,0,40.9-16.4,43.9-20.9C144.4,128.4,127.7,143.7,113,143.7z"/><path fill="#86461B" d="M160.8,54.1C158.5,18.8,149.1,0,98.7,0C48.4,0,38.9,18.8,36.6,54.1c-2.4,35.3,3,47.4,6.5,47.4c3.5,0,1.6-40.4,6.5-49.1c8.8-15.9,24.6-4.1,49.2-4.1s40.4-11.8,49.2,4.1c4.8,8.7,2.9,49.1,6.5,49.1C157.9,101.5,163.2,89.4,160.8,54.1z"/><path fill="#744A25" d="M67,165.1c-22.2,7.5-40.1,21.2-40.1,31.5H67L67,165.1L67,165.1L67,165.1z"/><path fill="#573514" d="M69.2,196.7v-33.8c0,0-5.7,2.2-7.7,3.2l-5.8,30.6L69.2,196.7L69.2,196.7z"/><path fill="#744A25" d="M129.6,165.1c22.2,7.5,40.1,21.2,40.1,31.5h-40.1L129.6,165.1L129.6,165.1L129.6,165.1z"/><path fill="#573514" d="M127.5,196.7v-33.8c0,0,5.7,2.2,7.7,3.2l5.9,30.6L127.5,196.7L127.5,196.7z"/></svg>
