<?xml version="1.0" encoding="utf-8"?>
<!-- Generator: Adobe Illustrator 22.0.1, SVG Export Plug-In . SVG Version: 6.00 Build 0)  -->
<svg version="1.1" id="Layer_1" xmlns="http://www.w3.org/2000/svg" xmlns:xlink="http://www.w3.org/1999/xlink" x="0px" y="0px"
	 viewBox="0 0 13 13" style="enable-background:new 0 0 13 13;" xml:space="preserve">
<style type="text/css">
	.st0{fill:#278f86;}
</style>
<path class="st0" d="M12,1v8h-2v3L7,9H1V1H12 M12,0H1C0.45,0,0,0.45,0,1v8c0,0.55,0.45,1,1,1h5.59l2.71,2.71
	C9.48,12.9,9.74,13,10,13c0.13,0,0.26-0.02,0.38-0.08C10.76,12.77,11,12.4,11,12v-2h1c0.55,0,1-0.45,1-1V1C13,0.45,12.55,0,12,0
	L12,0z"/>
</svg>
