<svg version="1.1" id="Layer_1" xmlns="http://www.w3.org/2000/svg" xmlns:xlink="http://www.w3.org/1999/xlink" x="0px" y="0px"
	 viewBox="0 0 20 19" style="enable-background:new 0 0 20 19;" xml:space="preserve">
<style type="text/css">
	.st0{fill:#EA8D00;}
</style>
<g>
	<path class="st0" d="M19.13,4.25c-0.38-0.38-0.88-0.58-1.41-0.58c-0.53,0-1.04,0.21-1.41,0.58l-4.24,4.24l-4.24,4.24l-2.08,2.08
		c-0.05,0.05-0.22,0.24-0.24,0.31l-0.75,2.24c-0.12,0.36-0.03,0.76,0.24,1.02c0.19,0.19,0.45,0.29,0.71,0.29
		c0.11,0,0.21-0.02,0.32-0.05l2.12-0.71c0.15-0.05,0.28-0.13,0.39-0.24l2.12-2.12l4.24-4.24l4.24-4.24
		c0.38-0.38,0.58-0.88,0.58-1.41C19.71,5.13,19.51,4.62,19.13,4.25z M5.69,17.68l0.53-1.59l1.06,1.06L5.69,17.68z M14.18,10.61
		l-4.24,4.24l-1.77,1.77l-1.41-1.41l1.77-1.77l4.24-4.24l2.88-2.88l1.46,1.37L14.18,10.61z M18.42,6.37l-0.61,0.61l-1.46-1.37
		l0.66-0.66c0.19-0.19,0.45-0.29,0.71-0.29c0.26,0,0.51,0.1,0.71,0.29C18.81,5.34,18.81,5.98,18.42,6.37z"/>
</g>
<g>
	<path class="st0" d="M12.29,4.9c0-0.28-0.22-0.5-0.5-0.5h-8c-0.28,0-0.5,0.22-0.5,0.5s0.22,0.5,0.5,0.5h8
		C12.06,5.4,12.29,5.18,12.29,4.9z"/>
</g>
<g>
	<path class="st0" d="M3.79,8.4c-0.28,0-0.5,0.22-0.5,0.5s0.22,0.5,0.5,0.5h4c0.28,0,0.5-0.22,0.5-0.5s-0.22-0.5-0.5-0.5H3.79z"/>
</g>
<g>
	<path class="st0" d="M6.29,12.9c0-0.28-0.22-0.5-0.5-0.5h-2c-0.28,0-0.5,0.22-0.5,0.5s0.22,0.5,0.5,0.5h2
		C6.06,13.4,6.29,13.18,6.29,12.9z"/>
</g>
<g>
	<path class="st0" d="M2.12,18.35H0.92c-0.28,0-0.5-0.22-0.5-0.5V0.88c0-0.28,0.22-0.5,0.5-0.5H17.9c0.28,0,0.5,0.22,0.5,0.5v0.79
		c0,0.28-0.22,0.5-0.5,0.5s-0.5-0.22-0.5-0.5V1.38H1.42v15.98h0.71c0.28,0,0.5,0.22,0.5,0.5S2.4,18.35,2.12,18.35z"/>
</g>
<g>
	<path class="st0" d="M17.9,18.35h-5.35c-0.28,0-0.5-0.22-0.5-0.5s0.22-0.5,0.5-0.5h4.85v-6.48c0-0.28,0.22-0.5,0.5-0.5
		s0.5,0.22,0.5,0.5v6.98C18.4,18.13,18.17,18.35,17.9,18.35z"/>
</g>
</svg>
