<svg version="1.1" id="Layer_1" xmlns="http://www.w3.org/2000/svg" xmlns:xlink="http://www.w3.org/1999/xlink" x="0px" y="0px"
	 viewBox="0 0 21 16" style="enable-background:new 0 0 21 16;" xml:space="preserve">
<style type="text/css">
	.st0{fill:#F9AD00;}
</style>
<g>
	<path class="st0" d="M10.5,6c1.65,0,3-1.35,3-3c0-1.65-1.35-3-3-3c-1.65,0-3,1.35-3,3C7.5,4.65,8.85,6,10.5,6z M10.5,1
		c1.1,0,2,0.9,2,2s-0.9,2-2,2c-1.1,0-2-0.9-2-2S9.4,1,10.5,1z"/>
	<path class="st0" d="M17.01,5.5c1.38,0,2.5-1.12,2.5-2.5c0-1.38-1.12-2.5-2.5-2.5c-1.38,0-2.5,1.12-2.5,2.5
		C14.51,4.38,15.63,5.5,17.01,5.5z M17.01,1.5c0.83,0,1.5,0.67,1.5,1.5s-0.67,1.5-1.5,1.5s-1.5-0.67-1.5-1.5S16.18,1.5,17.01,1.5z"
		/>
	<path class="st0" d="M18.81,6.19C18.63,6.06,18.42,6,18.22,6c-0.2,0-0.41,0.06-0.58,0.19c-0.21,0.15-0.42,0.23-0.62,0.23
		c-0.2,0-0.41-0.08-0.62-0.23C16.21,6.06,16.01,6,15.8,6c-0.21,0-0.41,0.06-0.59,0.19c-0.66,0.48-1.16,1.19-1.45,2.01
		c-0.32-0.57-0.73-1.06-1.23-1.43c-0.18-0.13-0.39-0.2-0.6-0.2c-0.21,0-0.42,0.07-0.6,0.2c-0.29,0.21-0.57,0.32-0.85,0.32
		c-0.28,0-0.56-0.11-0.85-0.32c-0.18-0.13-0.39-0.2-0.6-0.2c-0.21,0-0.42,0.07-0.6,0.2C7.96,7.14,7.55,7.63,7.23,8.2
		C6.94,7.37,6.45,6.67,5.78,6.19C5.61,6.06,5.4,6,5.2,6c-0.2,0-0.41,0.06-0.58,0.19C4.4,6.34,4.19,6.42,3.99,6.42
		c-0.2,0-0.41-0.08-0.62-0.23C3.19,6.06,2.99,6,2.78,6C2.58,6,2.37,6.06,2.19,6.19C1.12,6.97,0.48,8.33,0.48,9.84V13
		c0,0.55,0.45,1,1,1H6.5v1c0,0.55,0.45,1,1,1h6c0.55,0,1-0.45,1-1v-1h5.02c0.55,0,1-0.45,1-1V9.84C20.52,8.33,19.88,6.97,18.81,6.19
		z M1.48,13V9.84c0-1.22,0.53-2.28,1.3-2.84c0.36,0.26,0.77,0.42,1.21,0.42C4.43,7.42,4.84,7.26,5.2,7c0.77,0.56,1.3,1.62,1.3,2.84
		v1.24V13H1.48z M13.5,15h-6v-2v-1.92c0-1.52,0.63-2.83,1.56-3.52c0.43,0.32,0.92,0.52,1.44,0.52c0.53,0,1.01-0.2,1.44-0.52
		c0.92,0.69,1.56,2,1.56,3.52V13V15z M19.52,13H14.5v-1.92V9.84c0-1.22,0.53-2.28,1.3-2.84c0.36,0.26,0.77,0.42,1.21,0.42
		c0.44,0,0.85-0.16,1.21-0.42c0.77,0.56,1.3,1.62,1.3,2.84V13z"/>
	<path class="st0" d="M3.99,5.5c1.38,0,2.5-1.12,2.5-2.5c0-1.38-1.12-2.5-2.5-2.5c-1.38,0-2.5,1.12-2.5,2.5
		C1.49,4.38,2.61,5.5,3.99,5.5z M3.99,1.5c0.83,0,1.5,0.67,1.5,1.5s-0.67,1.5-1.5,1.5S2.49,3.83,2.49,3S3.16,1.5,3.99,1.5z"/>
</g>
</svg>
