<svg xmlns="http://www.w3.org/2000/svg" viewBox="0 0 18 18" style="enable-background:new 0 0 18 18;" xml:space="preserve">
<style type="text/css">
	.st0{fill:#ccc;}
</style>
<path class="st0" d="M17.43,16.68l-6.42-6.42c0.86-1.04,1.38-2.36,1.38-3.81c0-3.3-2.68-5.98-5.98-5.98c-3.3,0-5.98,2.68-5.98,5.98
	s2.68,5.98,5.98,5.98c1.49,0,2.85-0.55,3.9-1.46l6.42,6.42c0.1,0.1,0.23,0.15,0.35,0.15s0.26-0.05,0.35-0.15
	C17.62,17.19,17.62,16.88,17.43,16.68z M6.4,11.42c-2.75,0-4.98-2.23-4.98-4.98S3.65,1.47,6.4,1.47c2.75,0,4.98,2.23,4.98,4.98
	S9.15,11.42,6.4,11.42z"/>
</svg>
